<?xml version="1.0" encoding="utf-8"?>
<!-- Generator: Adobe Illustrator 19.0.0, SVG Export Plug-In . SVG Version: 6.00 Build 0)  -->
<svg version="1.1" id="Layer_1" xmlns="http://www.w3.org/2000/svg" xmlns:xlink="http://www.w3.org/1999/xlink" x="0px" y="0px"
	 viewBox="0 0 192 161.8" style="enable-background:new 0 0 192 161.8;" xml:space="preserve">
<g id="XMLID_4_">
	<g id="XMLID_32_">
		<g id="XMLID_21_">
			<polygon id="XMLID_23_" points="79.7,0 105.8,38 156,38 156,82 136.4,82 156,111 156,111.3 192,161.3 192,0 			"/>
			<path id="XMLID_22_" d="M171.5,153.2c-34.9-49.8-71-99.6-105.9-149.4c-1-1.4-2-3-3.7-2.9C42.3,1,22.6,0,2.9,0C2.8,0,2.7,0,2.7,0
				c0,0,0,0,0,0C2.6,0,1,0,0,0c0,53,0,107,0,163c35,0,64,0,95.9,0c-0.3,0-0.6-2-0.9-2.4c-9.9-14.9-19.9-30.3-29.8-45.2
				c-0.7-1.1-0.8-1.7-2-1.7c-4.6,0.1-9.2-0.2-13.2-0.2c0-14.2,0-28.2,0-42.6c0,0.6,0.1,1,0.4,1.4c20.4,29.1,40.4,58.2,60.8,87.3
				c0.7,1,1,1.7,2.5,1.7c20.3-0.1,41.9,0,62.2,0c0.3,0,0.3,0,1.3,0L171.5,153.2z"/>
		</g>
	</g>
</g>
</svg>
